<?xml version="1.0" encoding="UTF-8" standalone="no"?>
<!-- Created with Inkscape (http://www.inkscape.org/) -->

<svg
   xmlns:dc="http://purl.org/dc/elements/1.1/"
   xmlns:cc="http://creativecommons.org/ns#"
   xmlns:rdf="http://www.w3.org/1999/02/22-rdf-syntax-ns#"
   xmlns:svg="http://www.w3.org/2000/svg"
   xmlns="http://www.w3.org/2000/svg"
   xmlns:sodipodi="http://sodipodi.sourceforge.net/DTD/sodipodi-0.dtd"
   xmlns:inkscape="http://www.inkscape.org/namespaces/inkscape"
   width="139.498mm"
   height="139.06783mm"
   viewBox="0 0 139.498 139.06783"
   version="1.1"
   id="svg8"
   inkscape:version="0.92.3 (2405546, 2018-03-11)"
   sodipodi:docname="icon-white.svg"
   inkscape:export-filename="/home/ben/projects/rahn-landing/public/images/icon-128x128.png"
   inkscape:export-xdpi="27.370001"
   inkscape:export-ydpi="27.370001">
  <defs
     id="defs2" />
  <sodipodi:namedview
     id="base"
     pagecolor="#ffffff"
     bordercolor="#666666"
     borderopacity="1.0"
     inkscape:pageopacity="0.0"
     inkscape:pageshadow="2"
     inkscape:zoom="0.49497475"
     inkscape:cx="-154.15238"
     inkscape:cy="-35.754335"
     inkscape:document-units="mm"
     inkscape:current-layer="layer1"
     showgrid="false"
     inkscape:window-width="1853"
     inkscape:window-height="1025"
     inkscape:window-x="67"
     inkscape:window-y="27"
     inkscape:window-maximized="1"
     fit-margin-top="1"
     fit-margin-left="1"
     fit-margin-right="1"
     fit-margin-bottom="1" />
  <metadata
     id="metadata5">
    <rdf:RDF>
      <cc:Work
         rdf:about="">
        <dc:format>image/svg+xml</dc:format>
        <dc:type
           rdf:resource="http://purl.org/dc/dcmitype/StillImage" />
        <dc:title />
      </cc:Work>
    </rdf:RDF>
  </metadata>
  <g
     inkscape:label="Layer 1"
     inkscape:groupmode="layer"
     id="layer1"
     transform="translate(-34.707214,-60.567548)">
    <path
       style="fill:#ff6600;fill-opacity:1;stroke-width:6.954;stroke:#fffdfd;stroke-opacity:1;stroke-miterlimit:4;stroke-dasharray:none"
       d="m 74.822888,175.84563 c 0,-10.56684 -0.0713,-13.48741 -0.33073,-13.55482 -0.1819,-0.0472 -1.56427,-0.21536 -3.07193,-0.37357 -7.1253,-0.74774 -13.00014,-3.42171 -18.0421,-8.21197 -3.84405,-3.65215 -6.05193,-7.27266 -7.62033,-12.49586 l -0.70053,-2.33298 V 116.45742 94.038444 l 0.70053,-2.332981 c 1.38607,-4.616012 3.51914,-8.380873 6.47707,-11.432024 4.34614,-4.48311 8.94659,-7.089784 15.42475,-8.739855 l 2.53306,-0.645204 h 34.263532 34.26354 l 2.53306,0.645204 c 6.51836,1.660311 11.17708,4.311286 15.46547,8.800386 3.00614,3.146839 5.0521,6.761575 6.43635,11.371493 l 0.70053,2.332981 v 22.418976 22.41901 l -0.70053,2.33298 c -1.38425,4.60992 -3.43021,8.22465 -6.43635,11.3715 -4.29452,4.49551 -8.98795,7.16366 -15.46547,8.79191 l -2.53306,0.63673 -17.21427,0.0823 -17.21426,0.0822 -9.568711,8.82073 c -5.2628,4.85141 -11.89318,10.95802 -14.734171,13.57025 l -5.165449,4.74952 z"
       id="path826"
       inkscape:connector-curvature="0"
       inkscape:export-xdpi="27.370001"
       inkscape:export-ydpi="27.370001" />
    <g
       aria-label="Y"
       style="font-style:normal;font-weight:normal;font-size:10.58333302px;line-height:1.25;font-family:sans-serif;letter-spacing:0px;word-spacing:0px;fill:#ffffff;fill-opacity:1;stroke:none;stroke-width:0.26458332"
       id="text849"
       transform="matrix(9.8732953,0,-1.1004584e-6,6.8197788,-666.4226,-632.09028)"
       inkscape:export-xdpi="27.370001"
       inkscape:export-ydpi="27.370001">
      <path
         d="m 74.715123,106.13624 h 1.121379 l 2.139404,3.17293 2.123902,-3.17293 h 1.121378 l -2.728515,4.0411 v 3.67419 h -1.049032 v -3.67419 z"
         style="fill:#ffffff;fill-opacity:1;stroke-width:0.26458332"
         id="path851"
         inkscape:connector-curvature="0" />
    </g>
  </g>
</svg>
