<?xml version="1.0" encoding="UTF-8"?>
<svg width="139.5mm" height="139.07mm" version="1.1" viewBox="0 0 139.5 139.07" xmlns="http://www.w3.org/2000/svg" xmlns:cc="http://creativecommons.org/ns#" xmlns:dc="http://purl.org/dc/elements/1.1/" xmlns:rdf="http://www.w3.org/1999/02/22-rdf-syntax-ns#">
<metadata>
<rdf:RDF>
<cc:Work rdf:about="">
<dc:format>image/svg+xml</dc:format>
<dc:type rdf:resource="http://purl.org/dc/dcmitype/StillImage"/>
<dc:title/>
</cc:Work>
</rdf:RDF>
</metadata>
<g transform="translate(-34.707 -60.568)">
<path d="m74.823 175.85c0-10.567-0.0713-13.487-0.33073-13.555-0.1819-0.0472-1.5643-0.21536-3.0719-0.37357-7.1253-0.74774-13-3.4217-18.042-8.212-3.844-3.6522-6.0519-7.2727-7.6203-12.496l-0.70053-2.333v-44.838l0.70053-2.333c1.3861-4.616 3.5191-8.3809 6.4771-11.432 4.3461-4.4831 8.9466-7.0898 15.425-8.7399l2.5331-0.6452h68.527l2.5331 0.6452c6.5184 1.6603 11.177 4.3113 15.465 8.8004 3.0061 3.1468 5.0521 6.7616 6.4364 11.371l0.70053 2.333v44.838l-0.70053 2.333c-1.3842 4.6099-3.4302 8.2246-6.4364 11.372-4.2945 4.4955-8.988 7.1637-15.465 8.7919l-2.5331 0.63673-17.214 0.0823-17.214 0.0822-9.5687 8.8207c-5.2628 4.8514-11.893 10.958-14.734 13.57l-5.1654 4.7495z" fill="#f60" stroke="#fffdfd" stroke-width="6.954"/>
<g transform="matrix(9.8733 0 -1.1005e-6 6.8198 -666.42 -632.09)" fill="#fff" aria-label="Y">
<path d="m74.715 106.14h1.1214l2.1394 3.1729 2.1239-3.1729h1.1214l-2.7285 4.0411v3.6742h-1.049v-3.6742z" fill="#fff" stroke-width=".26458"/>
</g>
</g>
</svg>
